# xmcd
#
# Track frame offsets: 
#        150
#        13143
#        33607
#        48439
#        59236
#        78471
#        96738
#        114142
#        129474
#        157259
#        172959
#        190166
#        222352
#
# Disc length: 3139 seconds
#
# Revision: 0
# Processed by: cddbd v1.5.2PL0 Copyright (c) Steve Scherf et al.
# Submitted via: ExactAudioCopyFreeDBPlugin 1.0
#
DISCID=be0c410d
DTITLE=Natalia Natu Przybysz - Kozmic Blues Tribute To Janis Joplin
DYEAR=2013
DGENRE=Rock/Blues
TTITLE0=The Last Time
TTITLE1=Try (Just A Little Bit Harder)
TTITLE2=Niebieski
TTITLE3=Down On Me
TTITLE4=Kozmic Blues
TTITLE5=One Night Stand
TTITLE6=Move Over
TTITLE7=Half Moon
TTITLE8=To Love Somebody
TTITLE9=Maybe
TTITLE10=Tell Mama
TTITLE11=Ball And Chain
TTITLE12=Me And Bobby McGee
EXTD=
EXTT0=
EXTT1=
EXTT2=
EXTT3=
EXTT4=
EXTT5=
EXTT6=
EXTT7=
EXTT8=
EXTT9=
EXTT10=
EXTT11=
EXTT12=
PLAYORDER=
